<svg width="72" height="72" viewBox="0 0 24 24" xmlns="http://www.w3.org/2000/svg"><!-- 24x24 -->
<g fill="none" fill-rule="evenodd" stroke="none" stroke-width="1">
<path d="M7.00000003,5 L3.99079514,5 C2.89821238,5 2,5.89179693 2,6.99188419 L2,18.0081158 C2,19.1066027 2.89130934,20 3.99079514,20 L20.0092049,20 C21.1017876,20 22,19.1082031 22,18.0081158 L22,6.99188419 C22,5.89339733 21.1086907,5 20.0092049,5 L17.0000001,5 L15.0000001,3 L9.00000008,3 L7.00000003,5 L7.00000003,5 Z M12,17.5 C14.7614237,17.5 17,15.2614237 17,12.5 C17,9.73857625 14.7614237,7.5 12,7.5 C9.23857625,7.5 7,9.73857625 7,12.5 C7,15.2614237 9.23857625,17.5 12,17.5 L12,17.5 Z M12,16 C13.9329966,16 15.5,14.4329966 15.5,12.5 C15.5,10.5670034 13.9329966,9 12,9 C10.0670034,9 8.5,10.5670034 8.5,12.5 C8.5,14.4329966 10.0670034,16 12,16 L12,16 Z" fill="#b4bbc6"></path>
</g>
</svg>
